<?xml version="1.0"?>
<svg xmlns="http://www.w3.org/2000/svg" id="Capa_1" enable-background="new 0 0 501 501" height="512px" viewBox="0 0 501 501" width="512px" class=""><g><g><path d="m495.5 256c0 135.31-109.69 245-245 245s-245-109.69-245-245 109.69-245 245-245 245 109.69 245 245z" fill="#acd1fd" data-original="#ACD1FD" class="" style="fill:#1A7D76" data-old_color="#acd1fd"/><path d="m334.5 170h50v291.141c-4.762 3.117-9.639 6.073-14.624 8.859h-238.752c-74.95-41.899-125.624-122.032-125.624-214 0-60.903 22.222-116.615 59-159.471v68.471c0 2.761 2.239 5 5 5h30c2.761 0 5-2.239 5-5v-30c0-2.761 2.239-5 5-5h20c2.761 0 5-2.239 5-5 0-2.761 2.239-5 5-5h55v-85c0-2.761 2.239-5 5-5h20c2.761 0 5 2.239 5 5v10c0 2.761 2.239 5 5 5h20c2.761 0 5 2.239 5 5v115h40v-35c0-2.761 2.239-5 5-5h35z" fill="#81bdfd" data-original="#81BDFD" class="" style="fill:#24605C" data-old_color="#81bdfd"/><path d="m495.5 15v240c0 8.284-6.716 15-15 15h-66v135c0 8.284-6.716 15-15 15h-78.667c-8.284 0-15-6.716-15-15v-390c0-8.284 6.716-15 15-15h159.667c8.284 0 15 6.716 15 15z" fill="#2740af" data-original="#2740AF" class="" style="fill:#131C1B" data-old_color="#2740af"/><path d="m495.5 255c0 .071-.001.141-.002.212.001.263.002.525.002.788 0 58.689-20.636 112.558-55.047 154.747-4.767 5.844-11.897 9.253-19.439 9.253h-70.514c-8.284 0-15-6.716-15-15v-390c0-8.284 6.716-15 15-15h130c8.284 0 15 6.716 15 15z" fill="#314dc8" data-original="#314DC8" class="" style="fill:#295451" data-old_color="#314dc8"/><path d="m406.24 46.007h-31.74c-.084 0-.168.001-.251.003-2.667.066-5.074 1.176-6.83 2.937l-.001.001c-.003.003-.005.005-.008.008-.054.054-.107.109-.159.164-.017.018-.033.036-.05.054-.039.042-.078.084-.117.126-.017.019-.034.039-.051.058-.037.042-.074.083-.11.125-.017.02-.033.04-.05.059-.037.043-.073.087-.109.131-.013.016-.026.033-.04.05-.039.048-.077.096-.115.144-.01.013-.021.027-.031.04-.041.053-.081.106-.121.16-.005.007-.01.014-.015.021-1.041 1.415-1.718 3.113-1.894 4.957-.001.005-.001.011-.001.016-.007.073-.013.146-.018.22-.002.024-.003.049-.005.074-.004.055-.007.111-.01.167-.002.044-.003.088-.005.133-.001.037-.003.075-.004.112-.001.054-.002.108-.002.162 0 .026-.001.053-.001.079v113.992c0 5.522 4.478 10 10 10s10-4.478 10-10v-39.57c7.268-.039 16.775-.085 21.74-.085 23.6 0 42.799-18.917 42.799-42.169s-19.201-42.169-42.801-42.169zm0 64.338c-4.941 0-14.318.045-21.576.084-.039-7.463-.085-17.208-.085-22.253 0-4.267-.026-14.399-.049-22.169h21.71c12.358 0 22.799 10.152 22.799 22.169s-10.44 22.169-22.799 22.169zm58.36 108.927 9.314 9.314c.781.781.781 2.047 0 2.828l-9.314 9.314c-1.26 1.26-3.414.368-3.414-1.414v-18.627c0-1.783 2.155-2.675 3.414-1.415zm6.486 82.774-9.314-9.314c-.781-.781-.781-2.047 0-2.828l9.314-9.314c1.26-1.26 3.414-.368 3.414 1.414v18.627c0 1.782-2.154 2.675-3.414 1.415zm7.485 21.368-9.314 9.314c-.781.781-2.047.781-2.828 0l-9.314-9.314c-1.26-1.26-.368-3.414 1.414-3.414h18.627c1.783 0 2.675 2.154 1.415 3.414z" fill="#e3f0fb" data-original="#E3F0FB" class="" style="fill:#FFFFFF" data-old_color="#e3f0fb"/><path d="m444.5 227.5v5c0 2.761-2.239 5-5 5h-100c-2.761 0-5-2.239-5-5v-5c0-2.761 2.239-5 5-5h100c2.761 0 5 2.239 5 5zm-5 57.5h-100c-2.761 0-5 2.239-5 5v5c0 2.761 2.239 5 5 5h100c2.761 0 5-2.239 5-5v-5c0-2.761-2.239-5-5-5zm0 37.365h-100c-2.761 0-5 2.239-5 5v5c0 2.761 2.239 5 5 5h100c2.761 0 5-2.239 5-5v-5c0-2.762-2.239-5-5-5zm-100-57.365h60c2.761 0 5-2.239 5-5v-5c0-2.761-2.239-5-5-5h-60c-2.761 0-5 2.239-5 5v5c0 2.761 2.239 5 5 5zm101.56 145c-5.833 7.209-12.068 14.081-18.669 20.581-6.113 6.019-14.332 9.419-22.911 9.419h-114.98c-5.523 0-10-4.477-10-10v-10c0-5.523 4.477-10 10-10z" fill="#6c7fd7" data-original="#6C7FD7" class="" style="fill:#1A7D76" data-old_color="#6c7fd7"/><path d="m78.021 430h344.957c-44.275 43.89-105.21 71-172.479 71-67.267 0-128.203-27.11-172.478-71z" fill="#dca050" data-original="#DCA050" class="" data-old_color="#dca050" style="fill:#DDD6CD"/><path d="m250.5 501c-50.842 0-98.067-15.487-137.214-42h274.429c-39.148 26.513-86.373 42-137.215 42z" fill="#ebae56" data-original="#EBAE56" class="" data-old_color="#ebae56" style="fill:#6A6763"/><path d="m333.514 191.369 35.486 108.631h-329l35.486-108.631c8.061-24.676 31.076-41.369 57.034-41.369h143.96c25.958 0 48.973 16.693 57.034 41.369z" fill="#f52c2c" data-original="#F52C2C" class="" style="fill:#CBDFDD" data-old_color="#f52c2c"/><path d="m110.986 191.369-35.486 108.631h-35.5l35.486-108.631c8.061-24.676 31.076-41.369 57.034-41.369h35.5c-25.958 0-48.973 16.693-57.034 41.369z" fill="#c92c2c" data-original="#C92C2C" class="" style="fill:#8FBBB7" data-old_color="#c92c2c"/><path d="m74.467 280c-3.4 0-5.809-3.321-4.753-6.553l24.784-75.868c5.389-16.496 20.668-27.579 38.022-27.579h143.959c17.354 0 32.634 11.083 38.022 27.579l24.784 75.868c1.056 3.232-1.353 6.553-4.753 6.553z" fill="#6c7fd7" data-original="#6C7FD7" class="" style="fill:#1A7D76" data-old_color="#6c7fd7"/><path d="m290.243 172.426-48.353 107.574h-43.855l49.443-110h29.001c4.802 0 9.445.849 13.764 2.426zm-130.475-2.426-49.443 110h65.782l49.443-110z" fill="#8694dd" data-original="#8694DD" class="" style="fill:#ABA8A8" data-old_color="#8694dd"/><path d="m308.5 270c0 22.091-17.909 40-40 40s-40-17.909-40-40 17.909-40 40-40 40 17.909 40 40zm-40-25c-13.807 0-25 11.193-25 25s11.193 25 25 25 25-11.193 25-25-11.193-25-25-25z" fill="#2740af" data-original="#2740AF" class="" style="fill:#131C1B" data-old_color="#2740af"/><path d="m241.89 280h-12.13c-.823-3.196-1.26-6.547-1.26-10 0-20.661 15.664-37.662 35.764-39.778l-8.105 18.031c-7.56 4.3-12.659 12.427-12.659 21.746 0 1.786.188 3.528.544 5.208z" fill="#4f66cf" data-original="#4F66CF" class="" style="fill:#1B2625" data-old_color="#4f66cf"/><path d="m274.5 400h-140c-5.523 0-10-4.477-10-10v-10c0-5.523 4.477-10 10-10h140c5.523 0 10 4.477 10 10v10c0 5.523-4.477 10-10 10z" fill="#c92c2c" data-original="#C92C2C" class="" style="fill:#8FBBB7" data-old_color="#c92c2c"/><path d="m113.5 330v110c0 11.046-8.954 20-20 20h-12c-11.046 0-20-8.954-20-20v-110c0-11.046 8.954-20 20-20h12c11.046 0 20 8.954 20 20zm214-20h-12c-11.046 0-20 8.954-20 20v110c0 11.046 8.954 20 20 20h12c11.046 0 20-8.954 20-20v-110c0-11.046-8.954-20-20-20z" fill="#3f4a4a" data-original="#3F4A4A" class="active-path" data-old_color="#3f4a4a" style="fill:#1C1B1B"/><path d="m113.5 360v50c0 11.046-8.954 20-20 20h-12c-11.046 0-20-8.954-20-20v-50c0-11.046 8.954-20 20-20h12c11.046 0 20 8.954 20 20zm214-20h-12c-11.046 0-20 8.954-20 20v50c0 11.046 8.954 20 20 20h12c11.046 0 20-8.954 20-20v-50c0-11.046-8.954-20-20-20z" fill="#495959" data-original="#495959" class="" data-old_color="#495959" style="fill:#1E2020"/><path d="m14.5 337.258c0-21.915 13.572-41.487 34.039-49.322 46.608-17.841 99.668-27.936 155.961-27.936s109.353 10.095 155.961 27.936c20.467 7.835 34.039 27.407 34.039 49.322 0 29.129-23.613 52.742-52.742 52.742h-274.516c-29.129 0-52.742-23.613-52.742-52.742z" fill="#f52c2c" data-original="#F52C2C" class="" style="fill:#CBDFDD" data-old_color="#f52c2c"/><path d="m239.5 270h-70c-2.761 0-5-2.239-5-5 0-2.761 2.239-5 5-5h70c2.761 0 5 2.239 5 5 0 2.761-2.239 5-5 5z" fill="#c92c2c" data-original="#C92C2C" class="" style="fill:#8FBBB7" data-old_color="#c92c2c"/><path d="m362.5 335c0 8.284-6.716 15-15 15h-290c-8.284 0-15-6.716-15-15s6.716-15 15-15h290c8.284 0 15 6.716 15 15z" fill="#f4aa39" data-original="#F4AA39" class="" style="fill:#1A7D76" data-old_color="#f4aa39"/><path d="m351.5 350h-10c-8.284 0-15-6.716-15-15 0-8.284 6.716-15 15-15h10c8.284 0 15 6.716 15 15 0 8.284-6.716 15-15 15zm-223-15c0-8.284-6.716-15-15-15h-30c-8.284 0-15 6.716-15 15 0 8.284 6.716 15 15 15h30c8.284 0 15-6.716 15-15z" fill="#fdbf43" data-original="#FDBF43" class="" style="fill:#2E726D" data-old_color="#fdbf43"/><path d="m394.5 337.258c0 29.129-23.613 52.742-52.742 52.742h-274.516c-29.129 0-52.742-23.614-52.742-52.742 0-6.999 1.385-13.758 3.935-19.973 7.886 19.197 26.768 32.715 48.807 32.715h29.755l8.562-26.21c2.687-8.225 10.358-13.79 19.011-13.79h159.859c8.653 0 16.324 5.564 19.011 13.79l8.562 26.21h29.755c22.04 0 40.921-13.518 48.807-32.715 2.551 6.215 3.936 12.974 3.936 19.973z" fill="#c92c2c" data-original="#C92C2C" class="" style="fill:#8FBBB7" data-old_color="#c92c2c"/><path d="m259.5 360h-110c-2.761 0-5-2.239-5-5v-10c0-2.761 2.239-5 5-5h110c2.761 0 5 2.239 5 5v10c0 2.761-2.239 5-5 5z" fill="#f9eecf" data-original="#F9EECF" class="" style="fill:#181C1C" data-old_color="#f9eecf"/></g></g> </svg>
