<?xml version="1.0"?>
<svg xmlns="http://www.w3.org/2000/svg" enable-background="new 0 0 140 140" height="512px" viewBox="0 0 140 140" width="512px" class=""><g><circle cx="70" cy="70" fill="#de594e" r="64" data-original="#DE594E" class="" style="fill:#1A7D76" data-old_color="#de594e"/><path d="m71.1428375 131.7934418-46.0099449-46.0097657c-.0400391-.0302734-.0599976-.0498047-.0900269-.0898438-.0599976-.0703125-.0999756-.1699219-.0999756-.2700195v-3.840332c0-.2597656.2099609-.4599609.4599609-.4599609h1.1700439v-1.7900391h7.2799683v-.3696289l-5.8900146-5.8803711c-.0499878-.0498047-.0899658-.0898438-.1300049-.1396484l-.0899658-.0800781h.0299683c-.1499634-.2099609-.2600098-.4501953-.2600098-.7299805v-26.1001015c0-.7001953.5700073-1.2700195 1.2700195-1.2700195h41.6899986c.4000244 0 .7299805.1899414.960022.4799805l.0100098-.0097656 5.8099976 5.8095703h16.5700073c1.7799683 0 3.4799805.5703125 4.8899536 1.6000977l.0100098.0102539c.5200195.3798828 1 .8198242 1.4299927 1.3198242l.6000366.7099609 31.25 31.2402382c-5.710022 22.2998047-23.1400146 39.8999023-45.3300171 45.8696289z" opacity=".1" data-original="#000000" class=""/><path d="m33.857349 71.867607h3.224101v8.465158h-3.224101z" fill="#304551" data-original="#304551"/><path d="m62.165638 71.867607h3.224101v8.465158h-3.224101z" fill="#304551" data-original="#304551"/><path d="m112.4302139 68.4571533-12.2786865-14.4799843c-1.5755386-1.8579941-3.888382-2.9291992-6.3244553-2.9291992h-17.2584304c-.6986465 0-1.2650146.5663681-1.2650146 1.2650146v27.0162392h-48.7352887v6.5546875h48.7352886 38.3862839c.3910904 0 .7081375-.3170471.7081375-.7081451v-11.3553543c0-1.9644013-.6973495-3.8650131-1.9678345-5.3632584z" fill="#feda6f" data-original="#FEDA6F" class="" style="fill:#BFD6D5" data-old_color="#feda6f"/><path d="m108.9004288 70.038208h-29.8800049v-15.2700233h14.8099976c.8300171 0 1.6400146.2304688 2.3400269.6503906.4299927.25.8199463.5698242 1.1499634.9599609z" fill="#4da0dc" data-original="#4DA0DC" class="" style="fill:#153F3C" data-old_color="#4da0dc"/><path d="m114.2579651 81.3532028h-2.5448608c-.440918 0-.7983398.3574219-.7983398.7983398v2.9338379c0 .440918.3574219.7983398.7983398.7983398h2.5448608c.440918 0 .7984009-.3574219.7984009-.7983398v-2.9338379c0-.4409179-.3574829-.7983398-.7984009-.7983398z" fill="#344d5b" data-original="#344D5B" class="" style="fill:#182120" data-old_color="#344d5b"/><ellipse cx="94.119" cy="87.21" fill="#344d5b" rx="8.022" ry="8.022" transform="matrix(.383 -.924 .924 .383 -22.47 140.791)" data-original="#344D5B" class="" style="fill:#182120" data-old_color="#344d5b"/><ellipse cx="94.119" cy="87.21" fill="#ededed" rx="3.591" ry="3.591" transform="matrix(.383 -.924 .924 .383 -22.47 140.791)" data-original="#EDEDED" class="active-path" style="fill:#A5B0AF" data-old_color="#ededed"/><ellipse cx="41.799" cy="87.21" fill="#344d5b" rx="8.022" ry="8.022" transform="matrix(.383 -.924 .924 .383 -54.768 92.453)" data-original="#344D5B" class="" style="fill:#182120" data-old_color="#344d5b"/><ellipse cx="41.799" cy="87.21" fill="#ededed" rx="3.591" ry="3.591" transform="matrix(.383 -.924 .924 .383 -54.768 92.453)" data-original="#EDEDED" class="active-path" style="fill:#A5B0AF" data-old_color="#ededed"/><path d="m70.6377258 81.9556198h-15.1116333c-.6048584 0-1.0952148.4904785-1.0952148 1.0952148v4.5935059c0 .6047363.4903564 1.0952148 1.0952148 1.0952148h15.1116333c.6048584 0 1.0952148-.4904785 1.0952148-1.0952148v-4.5935059c.0000001-.6047363-.4903564-1.0952148-1.0952148-1.0952148z" fill="#dbd8dd" data-original="#DBD8DD" class="" style="fill:#0B3734" data-old_color="#dbd8dd"/><g fill="#344d5b"><path d="m108.8603821 68.4657516h-5.255249c-.3148193 0-.5700684.2553711-.5700684.5700684v2.2619629c0 .3146973.255249.5698242.5700684.5698242h5.255249c.3148804 0 .5700684-.255127.5700684-.5698242v-2.2619629c-.0000001-.3146973-.255188-.5700684-.5700684-.5700684z" data-original="#344D5B" class="" style="fill:#182120" data-old_color="#344D5B"/><path d="m27.7413635 81.1195602h-2.3364868c-.2546997 0-.4612427.206543-.4612427.4611816v3.8417969c0 .2546387.206543.4611816.4612427.4611816h2.3364868c.2547607 0 .4612427-.206543.4612427-.4611816v-3.8417969c0-.2546386-.2064819-.4611816-.4612427-.4611816z" data-original="#344D5B" class="" style="fill:#182120" data-old_color="#344D5B"/><path d="m71.7304459 46.0382042v26.1001015c0 .7001953-.5599976 1.2602539-1.2600098 1.2602539h-41.6900005c-.7000122 0-1.2700195-.5600586-1.2700195-1.2602539v-26.1001015c0-.699707.5700073-1.2700195 1.2700195-1.2700195h41.6900024c.7000103 0 1.2600079.5703125 1.2600079 1.2700195z" data-original="#344D5B" class="" style="fill:#182120" data-old_color="#344D5B"/></g><path d="m96.1704483 55.4185753c-.8300171 2.949707-2.7800293 6.199707-5.6500244 9.0595741-2.7600098 2.7705078-5.8800049 4.6801758-8.75 5.5600586h-2.75v-15.2700233h14.8099976c.830017 0 1.6400146.2304687 2.3400268.6503906z" fill="#65b1e0" data-original="#65B1E0" class="" style="fill:#184F4B" data-old_color="#65b1e0"/><path d="m28.7804356 44.7681847c-.7000122 0-1.2700195.5703125-1.2700195 1.2700195v23.7602577c7.2800274.4199219 16.0499859-3.2202148 23.1199932-10.2900429 4.5-4.5 7.6000366-9.6899414 9.1600342-14.7402344h-31.0100079z" fill="#467082" data-original="#467082" class="" style="fill:#0E3D39" data-old_color="#467082"/><g fill="#ededed"><path d="m37.5215187 63.6887856 4.465065-11.6266136h1.657547l4.7585068 11.6266136h-1.7527161l-1.3561745-3.5212936h-4.8616066l-1.2768669 3.5212936zm3.3547478-4.7743645h3.9416275l-1.2134171-3.2199249c-.3701057-.9781342-.6450424-1.7817955-.82481-2.4109764-.1480408.7455025-.3568878 1.485714-.6265335 2.2206383z" data-original="#EDEDED" class="active-path" style="fill:#A5B0AF" data-old_color="#EDEDED"/><path d="m49.631916 63.6887856v-11.6266137h4.0050774c.9041138 0 1.5940971.0555153 2.0699501.1665459.6661911.1533318 1.2345657.430912 1.7051315.8327408.6133156.5181465 1.0719833 1.1803741 1.3759995 1.9866753s.4560242 1.7276039.4560242 2.7639008c0 .8829651-.1030998 1.6654739-.3093033 2.3475266s-.470562 1.2464638-.7930832 1.6932373c-.3225212.4467697-.6754456.7983704-1.0587692 1.0548019-.3833237.2564278-.8459549.450737-1.3878975.5829163-.5419388.1321793-1.1645126.1982689-1.8677139.1982689h-4.1954156zm1.5385857-1.3720322h2.4823532c.7666473 0 1.3680687-.0713806 1.8042679-.2141342.4361954-.1427574.7838287-.3436699 1.0429039-.6027451.3648186-.3648186.6490059-.8552094.8525658-1.4711723.2035599-.6159592.305336-1.3627815.305336-2.2404633 0-1.2160606-.1995926-2.1505775-.5987778-2.8035507s-.8842888-1.0904922-1.4553108-1.3125534c-.4124031-.1586189-1.0759506-.2379265-1.9906387-.2379265h-2.4426994v8.8825455z" data-original="#EDEDED" class="active-path" style="fill:#A5B0AF" data-old_color="#EDEDED"/></g></g> </svg>
